<?xml version="1.0" encoding="UTF-8" standalone="no"?>
<!-- Created with Inkscape (http://www.inkscape.org/) -->

<svg
   width="512"
   height="512"
   viewBox="0 0 135.46667 135.46667"
   version="1.1"
   id="svg5"
   sodipodi:docname="drawing.svg"
   inkscape:version="1.2.2 (732a01da63, 2022-12-09)"
   xml:space="preserve"
   xmlns:inkscape="http://www.inkscape.org/namespaces/inkscape"
   xmlns:sodipodi="http://sodipodi.sourceforge.net/DTD/sodipodi-0.dtd"
   xmlns="http://www.w3.org/2000/svg"
   xmlns:svg="http://www.w3.org/2000/svg"><sodipodi:namedview
     id="namedview7"
     pagecolor="#505050"
     bordercolor="#ffffff"
     borderopacity="1"
     inkscape:showpageshadow="0"
     inkscape:pageopacity="0"
     inkscape:pagecheckerboard="1"
     inkscape:deskcolor="#505050"
     inkscape:document-units="mm"
     showgrid="false"
     inkscape:zoom="1.0544998"
     inkscape:cx="269.79616"
     inkscape:cy="268.84785"
     inkscape:window-width="1920"
     inkscape:window-height="1017"
     inkscape:window-x="-8"
     inkscape:window-y="-8"
     inkscape:window-maximized="1"
     inkscape:current-layer="layer1"
     showguides="true"><inkscape:grid
       type="xygrid"
       id="grid2097" /></sodipodi:namedview><defs
     id="defs2"><rect
       x="226.64973"
       y="453.29947"
       width="490.85089"
       height="403.67792"
       id="rect113" /><clipPath
       clipPathUnits="userSpaceOnUse"
       id="clipPath789"><path
         id="path791"
         style="fill:#ff0000;fill-opacity:1;fill-rule:nonzero;stroke:none;stroke-width:0.450033"
         d="M 235.48242,492.67653 V 662.2125 H 386.20226 V 492.67653 Z" /></clipPath></defs><g
     inkscape:label="Layer 1"
     inkscape:groupmode="layer"
     id="layer1"><path
       id="text111"
       clip-path="url(#clipPath789)"
       style="font-style:italic;font-variant:normal;font-weight:bold;font-stretch:normal;font-size:192px;font-family:Montserrat;-inkscape-font-specification:'Montserrat Bold Italic';white-space:pre;shape-inside:url(#rect113);display:inline;fill:#ffffff;fill-opacity:1"
       d="M 319.578 493.06064 C 303.32201 493.06064 288.85869 496.58061 276.1867 503.6206 C 263.64271 510.66059 253.8506 520.3246 246.8106 532.61259 C 239.89861 544.77257 236.44226 558.46899 236.44226 573.70098 C 236.44226 581.90219 237.74391 589.37827 240.34138 596.13232 L 268.48252 578.95195 C 268.11783 576.74096 267.93053 574.4173 267.93053 571.97292 C 267.93053 562.37293 269.91404 553.60482 273.88204 545.66882 C 277.85004 537.73283 283.54613 531.39707 290.97012 526.66107 C 298.39411 521.92508 307.03411 519.55635 316.8901 519.55635 C 328.53809 519.55635 337.56242 522.62837 343.96242 528.77236 C 344.84161 529.5988 345.65457 530.46972 346.41299 531.37587 L 373.13459 515.06217 C 368.28509 508.99404 362.08472 504.08904 354.52238 500.35698 C 344.66639 495.49298 333.01798 493.06064 319.578 493.06064 z M 383.12322 535.32773 L 353.5599 553.37564 C 353.52982 562.88968 351.54783 571.58551 347.61015 579.46087 C 343.64215 587.39687 337.94606 593.73263 330.52207 598.46863 C 323.09807 603.20462 314.45807 605.57247 304.60208 605.57247 C 294.24374 605.57247 285.96256 603.19193 279.75445 598.43435 L 252.74278 614.92473 C 261.43288 623.4011 272.95825 628.73338 287.32239 630.91673 C 299.61038 650.75671 317.01849 660.67694 339.54646 660.67694 C 346.84246 660.67694 353.62617 659.4612 359.89816 657.02921 C 366.29816 654.72521 371.6108 651.33247 375.83479 646.85248 L 364.1225 628.22883 C 361.0505 631.30083 357.53054 633.60507 353.56254 635.14106 C 349.59454 636.80506 345.56213 637.63646 341.46614 637.63646 C 334.29815 637.63646 328.53844 634.94878 324.18644 629.57278 C 336.47443 626.62878 347.16244 621.44514 356.25043 614.02114 C 365.46643 606.59715 372.56998 597.5092 377.56197 586.75721 C 382.55397 576.00522 385.05081 564.22871 385.05081 551.42872 C 385.05081 545.73253 384.40632 540.36672 383.12322 535.32773 z "
       transform="matrix(0.58791949,0,0,0.58791949,-115.12985,-271.41907)" /><circle
       style="fill:#ffffff;fill-opacity:1;stroke-width:0.32425"
       id="path1184"
       cy="60.148624"
       cx="67.526917"
       r="14.675662" /></g></svg>
